<svg width="64" height="64" viewBox="0 0 64 64" fill="none" xmlns="http://www.w3.org/2000/svg">
<path d="M53.8933 20.8532L33.36 32.7465C32.5333 33.2265 31.4933 33.2265 30.64 32.7465L10.1066 20.8532C8.63996 19.9998 8.26663 17.9998 9.38663 16.7465C10.16 15.8665 11.04 15.1465 11.9733 14.6398L26.4266 6.63984C29.52 4.90651 34.5333 4.90651 37.6266 6.63984L52.08 14.6398C53.0133 15.1465 53.8933 15.8932 54.6666 16.7465C55.7333 17.9998 55.36 19.9998 53.8933 20.8532Z" fill="#0FFFD7"/>
<path d="M30.48 37.7065V55.8932C30.48 57.9198 28.4267 59.2532 26.6133 58.3732C21.12 55.6798 11.8667 50.6398 11.8667 50.6398C8.61332 48.7998 5.94666 44.1598 5.94666 40.3465V26.5865C5.94666 24.4798 8.15999 23.1465 9.97332 24.1865L29.1467 35.3065C29.9467 35.8132 30.48 36.7198 30.48 37.7065Z" fill="#293C68"/>
<path d="M33.52 37.7065V55.8932C33.52 57.9198 35.5734 59.2532 37.3867 58.3732C42.88 55.6798 52.1334 50.6398 52.1334 50.6398C55.3867 48.7998 58.0534 44.1598 58.0534 40.3465V26.5865C58.0534 24.4798 55.84 23.1465 54.0267 24.1865L34.8534 35.3065C34.0534 35.8132 33.52 36.7198 33.52 37.7065Z" fill="#293C68"/>
</svg>
