<svg width="24" height="25" viewBox="0 0 24 25" fill="none" xmlns="http://www.w3.org/2000/svg">
<path d="M15 22.5C14.59 22.5 14.25 22.16 14.25 21.75V3.25C14.25 2.84 14.59 2.5 15 2.5C15.41 2.5 15.75 2.84 15.75 3.25V21.75C15.75 22.16 15.41 22.5 15 22.5Z" fill="white"/>
<path d="M18 20.5H15V4.5H18C20.21 4.5 22 6.29 22 8.5V16.5C22 18.71 20.21 20.5 18 20.5Z" fill="white"/>
<path d="M6 4.5C3.79 4.5 2 6.29 2 8.5V16.5C2 18.71 3.79 20.5 6 20.5H11C11.55 20.5 12 20.05 12 19.5V5.5C12 4.95 11.55 4.5 11 4.5H6ZM7.75 16C7.75 16.41 7.41 16.75 7 16.75C6.59 16.75 6.25 16.41 6.25 16V9C6.25 8.59 6.59 8.25 7 8.25C7.41 8.25 7.75 8.59 7.75 9V16Z" fill="white"/>
</svg>
