<svg width="15" height="15" viewBox="0 0 15 15" fill="none" xmlns="http://www.w3.org/2000/svg">
  <path d="M0.684097 0.684409C0.964537 0.403969 1.41921 0.404081 1.69972 0.684409L7.57667 6.56136L13.4536 0.684409C13.7341 0.404262 14.1879 0.404234 14.4683 0.684409C14.7488 0.964905 14.7488 1.41954 14.4683 1.70003L8.59132 7.57601L14.4683 13.453C14.7488 13.7335 14.7488 14.1881 14.4683 14.4686C14.1878 14.7488 13.7341 14.7488 13.4536 14.4686L7.57667 8.59164L1.69972 14.4686C1.4193 14.7489 0.964577 14.7498 0.684097 14.4696C0.403601 14.1891 0.404578 13.7335 0.685073 13.453L6.56105 7.57601L0.685073 1.70003C0.404635 1.4196 0.403773 0.964919 0.684097 0.684409Z" fill="white" />
</svg>