<svg width="24" height="25" viewBox="0 0 24 25" fill="none" xmlns="http://www.w3.org/2000/svg">
<path d="M20.95 4.63L4.13 21.45C5.08 22.14 6.32 22.5 7.81 22.5H16.19C19.83 22.5 22 20.33 22 16.69V8.31C22 6.82 21.64 5.58 20.95 4.63ZM18.5 16.75H16.81V18.5C16.81 18.91 16.47 19.25 16.06 19.25C15.65 19.25 15.31 18.91 15.31 18.5V16.75H13.5C13.09 16.75 12.75 16.41 12.75 16C12.75 15.59 13.09 15.25 13.5 15.25H15.31V13.5C15.31 13.09 15.65 12.75 16.06 12.75C16.47 12.75 16.81 13.09 16.81 13.5V15.25H18.5C18.91 15.25 19.25 15.59 19.25 16C19.25 16.41 18.91 16.75 18.5 16.75Z" fill="white"/>
<path d="M16.19 2.5H7.81C4.17 2.5 2 4.67 2 8.31V16.69C2 18.18 2.36 19.42 3.05 20.37L19.87 3.55C18.92 2.86 17.68 2.5 16.19 2.5ZM10.5 8.75H5.5C5.09 8.75 4.75 8.41 4.75 8C4.75 7.59 5.09 7.25 5.5 7.25H10.5C10.91 7.25 11.25 7.59 11.25 8C11.25 8.41 10.91 8.75 10.5 8.75Z" fill="white"/>
</svg>
