<svg width="24" height="25" viewBox="0 0 24 25" fill="none" xmlns="http://www.w3.org/2000/svg">
<path d="M17 22.5H7C6.59 22.5 6.25 22.16 6.25 21.75C6.25 21.34 6.59 21 7 21H17C17.41 21 17.75 21.34 17.75 21.75C17.75 22.16 17.41 22.5 17 22.5Z" fill="white"/>
<path d="M20.35 6.01998L16.35 8.87998C15.82 9.25998 15.06 9.02998 14.83 8.41998L12.94 3.37998C12.62 2.50998 11.39 2.50998 11.07 3.37998L9.16998 8.40998C8.93998 9.02998 8.18997 9.25998 7.65998 8.86998L3.65998 6.00998C2.85998 5.44998 1.79998 6.23998 2.12998 7.16998L6.28998 18.82C6.42998 19.22 6.80998 19.48 7.22998 19.48H16.76C17.18 19.48 17.56 19.21 17.7 18.82L21.86 7.16998C22.2 6.23998 21.14 5.44998 20.35 6.01998ZM14.5 15.25H9.49998C9.08998 15.25 8.74998 14.91 8.74998 14.5C8.74998 14.09 9.08998 13.75 9.49998 13.75H14.5C14.91 13.75 15.25 14.09 15.25 14.5C15.25 14.91 14.91 15.25 14.5 15.25Z" fill="white"/>
</svg>
