<svg width="42" height="42" viewBox="0 0 42 42" fill="none" xmlns="http://www.w3.org/2000/svg">
<rect width="42" height="42" rx="12" fill="#1F2340"/>
<rect x="0.5" y="0.5" width="41" height="41" rx="11.5" stroke="#182038" stroke-opacity="0.2"/>
<path d="M20.25 31.75H17.7999C16.9723 31.75 16.3064 31.751 15.7686 31.707C15.222 31.6624 14.7421 31.5671 14.2979 31.3408C13.5923 30.9813 13.0187 30.4077 12.6592 29.7021C12.4329 29.258 12.3377 28.778 12.293 28.2314C12.2491 27.6936 12.25 27.0278 12.25 26.2002V24C12.25 23.5858 12.5859 23.25 13 23.25H20.25V31.75ZM29 23.25C29.4143 23.25 29.75 23.5858 29.75 24V26.2002C29.75 27.0278 29.751 27.6936 29.7071 28.2314C29.6624 28.7781 29.5672 29.258 29.3409 29.7021C28.9813 30.4077 28.4078 30.9813 27.7022 31.3408C27.258 31.5671 26.7781 31.6624 26.2315 31.707C25.6937 31.751 25.0278 31.75 24.2002 31.75H21.75V23.25H29ZM24.8223 10.2549C25.7974 10.2997 26.5881 10.6766 27.1416 11.2695C27.7218 11.8911 28 12.705 28 13.5C28 14.1033 27.8396 14.7173 27.5088 15.25H28.5C28.9285 15.25 29.2524 15.2464 29.5362 15.3027C30.6271 15.5197 31.4803 16.373 31.6973 17.4639C31.7537 17.7477 31.75 18.0715 31.75 18.5C31.75 18.9285 31.7537 19.2523 31.6973 19.5361C31.4803 20.627 30.6271 21.4803 29.5362 21.6973C29.2524 21.7536 28.9285 21.75 28.5 21.75H21.75V15.25H20.25V21.75H13.5C13.0716 21.75 12.7477 21.7537 12.4639 21.6973C11.3731 21.4802 10.5198 20.627 10.3028 19.5361C10.2464 19.2523 10.25 18.9285 10.25 18.5C10.25 18.0715 10.2464 17.7477 10.3028 17.4639C10.5198 16.373 11.3731 15.5198 12.4639 15.3027C12.7477 15.2463 13.0716 15.25 13.5 15.25H14.4913C14.1605 14.7173 14 14.1032 14 13.5C14 12.705 14.2783 11.8911 14.8584 11.2695C15.412 10.6766 16.2027 10.2997 17.1778 10.2549L17.375 10.25C18.9501 10.25 20.2212 11.1865 20.9795 12.6357C21.1073 12.3853 21.2505 12.1497 21.4102 11.9316C22.1782 10.8827 23.3009 10.25 24.625 10.25L24.8223 10.2549ZM17.375 11.75C16.6912 11.75 16.2387 11.9881 15.9541 12.293C15.6594 12.6089 15.5 13.0451 15.5 13.5C15.5 13.9549 15.6594 14.3911 15.9541 14.707C16.2387 15.0119 16.6912 15.25 17.375 15.25H20.212C19.9742 12.9415 18.6441 11.75 17.375 11.75ZM24.625 11.75C23.8243 11.75 23.1344 12.1174 22.6211 12.8184C22.1958 13.3993 21.8864 14.2216 21.7852 15.25H24.625C25.3089 15.25 25.7614 15.0119 26.0459 14.707C26.3407 14.3911 26.5 13.9549 26.5 13.5C26.5 13.0451 26.3407 12.6089 26.0459 12.293C25.7614 11.9881 25.3089 11.75 24.625 11.75Z" fill="#D5DBFF"/>
</svg>
