<svg width="24" height="25" viewBox="0 0 24 25" fill="none" xmlns="http://www.w3.org/2000/svg">
<path d="M22 10.25C21.59 10.25 21.25 9.91 21.25 9.5V7.5C21.25 4.92 19.58 3.25 17 3.25H7C4.42 3.25 2.75 4.92 2.75 7.5V9.5C2.75 9.91 2.41 10.25 2 10.25C1.59 10.25 1.25 9.91 1.25 9.5V7.5C1.25 4.06 3.56 1.75 7 1.75H17C20.44 1.75 22.75 4.06 22.75 7.5V9.5C22.75 9.91 22.41 10.25 22 10.25Z" fill="white"/>
<path d="M17 23.25H7C3.56 23.25 1.25 20.94 1.25 17.5V15.5C1.25 15.09 1.59 14.75 2 14.75C2.41 14.75 2.75 15.09 2.75 15.5V17.5C2.75 20.08 4.42 21.75 7 21.75H17C19.58 21.75 21.25 20.08 21.25 17.5V15.5C21.25 15.09 21.59 14.75 22 14.75C22.41 14.75 22.75 15.09 22.75 15.5V17.5C22.75 20.94 20.44 23.25 17 23.25Z" fill="white"/>
<path d="M22 13.25H2C1.59 13.25 1.25 12.91 1.25 12.5C1.25 12.09 1.59 11.75 2 11.75H22C22.41 11.75 22.75 12.09 22.75 12.5C22.75 12.91 22.41 13.25 22 13.25Z" fill="white"/>
<path d="M16.5 9.5H7.5C7.22 9.5 7 9.28 7 9V7C7 6.17 7.67 5.5 8.5 5.5H15.5C16.33 5.5 17 6.17 17 7V9C17 9.28 16.78 9.5 16.5 9.5Z" fill="white"/>
<path d="M16.5 15.5H7.5C7.22 15.5 7 15.72 7 16V18C7 18.83 7.67 19.5 8.5 19.5H15.5C16.32 19.5 17 18.83 17 18V16C17 15.72 16.78 15.5 16.5 15.5Z" fill="white"/>
</svg>
