<svg width="20" height="20" viewBox="0 0 20 20" fill="none" xmlns="http://www.w3.org/2000/svg">
<path d="M16.7528 0H3.24563C0.762256 0 -0.81133 2.67857 0.438392 4.84541L8.77358 19.2927C9.31747 20.2358 10.6809 20.2358 11.2248 19.2927L19.5625 4.84418C20.811 2.68228 19.2361 0 16.754 0H16.7528ZM8.7674 14.959L6.95153 11.4461L2.5707 3.61181C2.50415 3.4948 2.46964 3.36229 2.47067 3.22768C2.4717 3.09306 2.50822 2.9611 2.57656 2.84512C2.6449 2.72914 2.74263 2.63323 2.85989 2.5671C2.97715 2.50096 3.10978 2.46693 3.24439 2.46844H8.76369V14.9614L8.76616 14.959H8.7674ZM17.424 3.61057L13.0456 11.4473L11.2298 14.959V2.46597H16.7515C17.3572 2.46597 17.7132 3.10873 17.424 3.61057Z" fill="white"/>
</svg>
