<svg width="42" height="42" viewBox="0 0 42 42" fill="none" xmlns="http://www.w3.org/2000/svg">
<rect width="42" height="42" rx="12" fill="#0FFFD7"/>
<path d="M30.77 18.7999L29.97 16.9999L28.21 13.0399C27.74 11.9999 27 11.1499 25.3 11.1499H16.7C15 11.1499 14.26 11.9999 13.79 13.0399L12.03 16.9999L11.23 18.7999C10.77 19.8499 11.02 21.3899 11.79 22.2399L18.64 29.7799C19.94 31.2099 22.06 31.2099 23.36 29.7799L30.21 22.2399C30.98 21.3899 31.23 19.8499 30.77 18.7999Z" fill="#086555"/>
<rect width="42" height="42" rx="12" fill="#F1205F"/>
<path d="M9 14.5L21 7L33 14.5V26.5L21 34L9 26.5V14.5Z" fill="#8E002B"/>
<path d="M13.5 16.75L21 11.5L28.5 16.75V24.5L21 29.5L13.5 24.5V16.75Z" fill="#8E002B"/>
</svg>
