<svg width="42" height="42" viewBox="0 0 42 42" fill="none" xmlns="http://www.w3.org/2000/svg">
<rect width="42" height="42" rx="12" fill="#0FFFD7"/>
<path d="M30.77 18.7999L29.97 16.9999L28.21 13.0399C27.74 11.9999 27 11.1499 25.3 11.1499H16.7C15 11.1499 14.26 11.9999 13.79 13.0399L12.03 16.9999L11.23 18.7999C10.77 19.8499 11.02 21.3899 11.79 22.2399L18.64 29.7799C19.94 31.2099 22.06 31.2099 23.36 29.7799L30.21 22.2399C30.98 21.3899 31.23 19.8499 30.77 18.7999Z" fill="#086555"/>
<rect width="42" height="42" rx="12" fill="#2D2851"/>
<path d="M26.71 11H25.76C25.37 11 25.05 11.32 25.05 11.71C25.05 12.11 25.37 12.43 25.76 12.43H26.71C28.42 12.43 29.81 13.82 29.81 15.52V21.4C29.45 21.21 29.05 21.11 28.62 21.11H24.81C23.37 21.11 22.19 22.28 22.19 23.73V25.29H19.81V23.73C19.81 22.28 18.63 21.11 17.19 21.11H13.38C12.95 21.11 12.55 21.21 12.19 21.4V15.52C12.19 13.82 13.58 12.43 15.29 12.43H16.24C16.63 12.43 16.95 12.11 16.95 11.71C16.95 11.32 16.63 11 16.24 11H15.29C12.79 11 10.76 13.03 10.76 15.52V23.73V28.38C10.76 29.83 11.94 31 13.38 31H17.19C18.63 31 19.81 29.83 19.81 28.38V26.71H22.19V28.38C22.19 29.83 23.37 31 24.81 31H28.62C30.06 31 31.24 29.83 31.24 28.38V23.73V15.52C31.24 13.03 29.21 11 26.71 11Z" fill="#534A8D"/>
<rect width="42" height="42" rx="12" fill="#2D2851"/>
<path d="M20.6192 36L29.0001 29.2953V12.5334L20.6192 5.82861L12.2382 12.5334V29.2953L20.6192 36Z" fill="#534A8D"/>
</svg>
