<svg width="42" height="42" viewBox="0 0 42 42" fill="none" xmlns="http://www.w3.org/2000/svg">
<rect width="42" height="42" rx="12" fill="#0FFFD7"/>
<path d="M30.77 18.7999L29.97 16.9999L28.21 13.0399C27.74 11.9999 27 11.1499 25.3 11.1499H16.7C15 11.1499 14.26 11.9999 13.79 13.0399L12.03 16.9999L11.23 18.7999C10.77 19.8499 11.02 21.3899 11.79 22.2399L18.64 29.7799C19.94 31.2099 22.06 31.2099 23.36 29.7799L30.21 22.2399C30.98 21.3899 31.23 19.8499 30.77 18.7999Z" fill="#086555"/>
<rect width="42" height="42" rx="12" fill="#F1205F"/>
<path d="M21 11C15.5 11 11 15.58 11 21.18V29.07C11 30.33 11.75 30.67 12.67 29.83L13.67 28.92C14.04 28.58 14.64 28.58 15.01 28.92L17.01 30.75C17.38 31.09 17.98 31.09 18.35 30.75L20.35 28.92C20.72 28.58 21.32 28.58 21.69 28.92L23.69 30.75C24.06 31.09 24.66 31.09 25.03 30.75L27.03 28.92C27.4 28.58 28 28.58 28.37 28.92L29.37 29.83C30.29 30.67 31.04 30.33 31.04 29.07V21.18C31 15.58 26.5 11 21 11ZM21 15.62C22.31 15.62 23.38 16.69 23.38 18C23.38 19.31 22.31 20.38 21 20.38C19.69 20.38 18.62 19.31 18.62 18C18.62 16.69 19.69 15.62 21 15.62ZM25.45 23.6C24.14 24.58 22.57 25.07 21 25.07C19.43 25.07 17.86 24.58 16.55 23.6C16.22 23.35 16.15 22.88 16.4 22.55C16.65 22.22 17.12 22.15 17.45 22.4C19.54 23.97 22.46 23.97 24.55 22.4C24.88 22.15 25.35 22.22 25.6 22.55C25.85 22.88 25.78 23.35 25.45 23.6Z" fill="#4B0631"/>
<rect width="42" height="42" rx="12" fill="#0FFFD7"/>
<path d="M30.77 18.7999L29.97 16.9999L28.21 13.0399C27.74 11.9999 27 11.1499 25.3 11.1499H16.7C15 11.1499 14.26 11.9999 13.79 13.0399L12.03 16.9999L11.23 18.7999C10.77 19.8499 11.02 21.3899 11.79 22.2399L18.64 29.7799C19.94 31.2099 22.06 31.2099 23.36 29.7799L30.21 22.2399C30.98 21.3899 31.23 19.8499 30.77 18.7999Z" fill="#086555"/>
</svg>
