<svg width="98" height="43" viewBox="0 0 98 43" fill="none" xmlns="http://www.w3.org/2000/svg">
<path d="M80.823 2.77295H85.8835L88.4861 13.617H89.3536L92.2454 2.77295H97.3059L91.5225 23.3043H86.4619L88.0524 17.81H84.7269L80.823 2.77295Z" fill="white"/>
<path d="M67.8547 17.561C65.817 16.6409 64.4256 15.1573 63.6805 13.1102C62.9355 11.0632 63.0477 9.0323 64.0172 7.01767C64.9867 5.00303 66.5494 3.6034 68.7051 2.81877C70.8971 2.02094 73.0029 2.08538 75.0225 3.01208C77.042 3.93877 78.4244 5.42566 79.1694 7.47273L79.4661 8.28793L68.7326 12.1946C69.227 13.102 69.8234 13.7261 70.5219 14.0668C71.2318 14.3828 71.9944 14.3925 72.8096 14.0958C73.7698 13.7463 74.4054 13.238 74.7165 12.5709C74.8613 12.2925 74.9502 11.9729 74.983 11.6122L79.8742 9.83193C79.9108 10.947 79.7349 11.9855 79.3465 12.9475C78.5417 15.1894 76.8078 16.7949 74.1448 17.7642C71.9891 18.5488 69.8923 18.4811 67.8547 17.561ZM68.0278 9.83542L73.7342 7.75845C73.3338 7.16563 72.8009 6.74414 72.1354 6.49398C71.4633 6.22571 70.765 6.22345 70.0403 6.48719C69.3157 6.75093 68.7822 7.20156 68.4398 7.83907C68.0908 8.45846 67.9535 9.12392 68.0278 9.83542Z" fill="white"/>
<path d="M45.833 17.81V2.77293H50.749V4.79715H51.0381C51.308 4.33448 51.6551 3.92963 52.0792 3.58262C53.0624 2.75366 54.2094 2.33917 55.5203 2.33917C57.294 2.33917 58.6723 2.87896 59.6555 3.95855C60.658 5.01885 61.1592 6.55148 61.1592 8.55642V17.81H56.2433V9.27936C56.2433 8.41183 56.0119 7.73709 55.5493 7.25514C55.0866 6.77318 54.4504 6.5322 53.6407 6.5322C52.8118 6.5322 52.1177 6.84065 51.5587 7.45756C51.0189 8.05518 50.749 8.85524 50.749 9.85771V17.81H45.833Z" fill="white"/>
<path d="M29.3246 15.9015C27.7052 14.3399 26.8955 12.4699 26.8955 10.2915C26.8955 8.11302 27.7052 6.24303 29.3246 4.68148C30.9439 3.11994 32.9296 2.33917 35.2816 2.33917C37.6335 2.33917 39.6192 3.11994 41.2386 4.68148C42.8579 6.24303 43.6676 8.11302 43.6676 10.2915C43.6676 12.4699 42.8579 14.3399 41.2386 15.9015C39.6192 17.463 37.6335 18.2438 35.2816 18.2438C32.9296 18.2438 30.9439 17.463 29.3246 15.9015ZM32.8814 7.57323C32.2645 8.24797 31.9561 9.15405 31.9561 10.2915C31.9561 11.4289 32.2645 12.3446 32.8814 13.0386C33.5176 13.7134 34.3177 14.0507 35.2816 14.0507C36.2455 14.0507 37.0359 13.7134 37.6528 13.0386C38.289 12.3446 38.6071 11.4289 38.6071 10.2915C38.6071 9.15405 38.289 8.24797 37.6528 7.57323C37.0359 6.87921 36.2455 6.5322 35.2816 6.5322C34.3177 6.5322 33.5176 6.87921 32.8814 7.57323Z" fill="white"/>
<path d="M0 17.81V2.77293H4.91596V4.79715H5.20514C5.47503 4.3152 5.80277 3.91035 6.18833 3.58262C7.13297 2.75366 8.25111 2.33917 9.54275 2.33917C11.1043 2.33917 12.367 2.80185 13.3309 3.72721C13.7358 4.11278 14.0635 4.56582 14.3141 5.08633H14.6033C14.8346 4.58509 15.1527 4.13205 15.5576 3.72721C16.4829 2.80185 17.7071 2.33917 19.2301 2.33917C21.0037 2.33917 22.3821 2.87896 23.3653 3.95855C24.3678 5.01885 24.869 6.55148 24.869 8.55642V17.81H19.953V9.27936C19.953 7.44792 19.1819 6.5322 17.6396 6.5322C16.8107 6.5322 16.1456 6.81173 15.6443 7.3708C15.1431 7.92988 14.8925 8.71065 14.8925 9.71312V17.81H9.97651V9.27936C9.97651 7.44792 9.20538 6.5322 7.66312 6.5322C6.83415 6.5322 6.16905 6.81173 5.66782 7.3708C5.16658 7.92988 4.91596 8.71065 4.91596 9.71312V17.81H0Z" fill="white"/>
<path d="M83.7819 38.9932C81.7442 38.0731 80.3529 36.5895 79.6078 34.5424C78.8627 32.4953 78.9749 30.4645 79.9445 28.4499C80.914 26.4352 82.4766 25.0356 84.6324 24.251C86.8244 23.4531 88.9302 23.5176 90.9497 24.4443C92.9693 25.371 94.3516 26.8578 95.0967 28.9049L95.3934 29.7201L84.6599 33.6268C85.1542 34.5342 85.7507 35.1582 86.4491 35.499C87.1591 35.815 87.9217 35.8247 88.7369 35.528C89.697 35.1785 90.3326 34.6702 90.6437 34.003C90.7886 33.7246 90.8774 33.4051 90.9103 33.0444L95.8015 31.2641C95.8381 32.3792 95.6621 33.4177 95.2737 34.3797C94.469 36.6216 92.7351 38.2271 90.0721 39.1964C87.9163 39.981 85.8196 39.9133 83.7819 38.9932ZM83.955 31.2676L89.6615 29.1906C89.2611 28.5978 88.7281 28.1763 88.0626 27.9262C87.3906 27.6579 86.6922 27.6556 85.9676 27.9194C85.243 28.1831 84.7094 28.6337 84.367 29.2713C84.0181 29.8907 83.8807 30.5561 83.955 31.2676Z" fill="white"/>
<path d="M63.7935 39.2422V19H68.7094V29.5549H70.2999L73.6254 24.2051H78.8305L74.4929 31.2899L79.2643 39.2422H73.9146L70.5891 33.7479H68.7094V39.2422H63.7935Z" fill="white"/>
<path d="M46.5144 37.5071C45.2227 36.042 44.5769 34.1142 44.5769 31.7237C44.5769 29.3332 45.2227 27.415 46.5144 25.9691C47.806 24.5039 49.3772 23.7714 51.2279 23.7714C52.4232 23.7714 53.5509 24.1858 54.6113 25.0148C55.0547 25.3811 55.4209 25.7859 55.7101 26.2293H55.9993V24.2051H60.9153V39.2422H55.9993V37.218H55.7101C55.4402 37.6806 55.0739 38.0951 54.6113 38.4614C53.5702 39.2711 52.4424 39.676 51.2279 39.676C49.3772 39.676 47.806 38.953 46.5144 37.5071ZM50.505 28.9476C49.9266 29.603 49.6375 30.5284 49.6375 31.7237C49.6375 32.9189 49.9266 33.8443 50.505 34.4997C51.0833 35.1552 51.8545 35.4829 52.8184 35.4829C53.7823 35.4829 54.5534 35.1552 55.1318 34.4997C55.7101 33.8443 55.9993 32.9189 55.9993 31.7237C55.9993 30.5284 55.7101 29.603 55.1318 28.9476C54.5534 28.2921 53.7823 27.9644 52.8184 27.9644C51.8545 27.9644 51.0833 28.2921 50.505 28.9476Z" fill="white"/>
<path d="M32 28.109V24.2051H33.8796V21.0242H38.7956V24.2051H42.6995V28.109H38.7956V35.3384H42.9886V39.2422H33.8796V28.109H32Z" fill="white"/>
<path d="M18 39H12L19 28.9024H28L24 35.0488H20.5L18 39Z" fill="#0FFFD7"/>
<path d="M18.5 27.5854L10 39L0 25.3902L3.5 21H10L6.5 25.3902L10 30.2195L16.5 21H28L23.5 27.5854H18.5Z" fill="#0FFFD7"/>
</svg>
