<svg width="370" height="125" viewBox="0 0 370 125" fill="none" xmlns="http://www.w3.org/2000/svg">
<path d="M0 -16L43.1907 175.884H326.809L370 -16H0Z" fill="url(#paint0_radial_159_4465)"/>
<path d="M145.632 52.8928C145.632 53.756 144.933 54.4558 144.069 54.4558C143.206 54.4558 142.506 53.756 142.506 52.8928C142.506 52.0295 143.206 51.3297 144.069 51.3297C144.933 51.3297 145.632 52.0295 145.632 52.8928Z" fill="url(#paint1_linear_159_4465)"/>
<path d="M173.767 62.2711C173.767 63.1344 173.067 63.8342 172.204 63.8342C171.341 63.8342 170.641 63.1344 170.641 62.2711C170.641 61.4079 171.341 60.7081 172.204 60.7081C173.067 60.7081 173.767 61.4079 173.767 62.2711Z" fill="url(#paint2_linear_159_4465)"/>
<path d="M142.506 99.7846C142.506 100.648 141.806 101.348 140.943 101.348C140.079 101.348 139.38 100.648 139.38 99.7846C139.38 98.9213 140.079 98.2215 140.943 98.2215C141.806 98.2215 142.506 98.9213 142.506 99.7846Z" fill="url(#paint3_linear_159_4465)"/>
<path d="M237.853 79.4647C237.853 80.328 237.153 81.0278 236.29 81.0278C235.426 81.0278 234.726 80.328 234.726 79.4647C234.726 78.6015 235.426 77.9016 236.29 77.9016C237.153 77.9016 237.853 78.6015 237.853 79.4647Z" fill="url(#paint4_linear_159_4465)"/>
<path d="M219.096 109.163C219.096 110.026 218.396 110.726 217.533 110.726C216.67 110.726 215.97 110.026 215.97 109.163C215.97 108.3 216.67 107.6 217.533 107.6C218.396 107.6 219.096 108.3 219.096 109.163Z" fill="url(#paint5_linear_159_4465)"/>
<path d="M242.542 135.735C242.542 136.598 241.842 137.298 240.979 137.298C240.116 137.298 239.416 136.598 239.416 135.735C239.416 134.872 240.116 134.172 240.979 134.172C241.842 134.172 242.542 134.872 242.542 135.735Z" fill="url(#paint6_linear_159_4465)"/>
<path d="M226.911 159.181C226.911 160.044 226.212 160.744 225.348 160.744C224.485 160.744 223.785 160.044 223.785 159.181C223.785 158.318 224.485 157.618 225.348 157.618C226.212 157.618 226.911 158.318 226.911 159.181Z" fill="url(#paint7_linear_159_4465)"/>
<path d="M128.438 73.2125C128.438 74.0758 127.738 74.7756 126.875 74.7756C126.012 74.7756 125.312 74.0758 125.312 73.2125C125.312 72.3493 126.012 71.6495 126.875 71.6495C127.738 71.6495 128.438 72.3493 128.438 73.2125Z" fill="url(#paint8_linear_159_4465)"/>
<path d="M209.718 59.145C209.718 60.0082 209.018 60.708 208.155 60.708C207.292 60.708 206.592 60.0082 206.592 59.145C206.592 58.2817 207.292 57.5819 208.155 57.5819C209.018 57.5819 209.718 58.2817 209.718 59.145Z" fill="url(#paint9_linear_159_4465)"/>
<path d="M187.835 29.4468C187.835 30.31 187.135 31.0099 186.272 31.0099C185.409 31.0099 184.709 30.31 184.709 29.4468C184.709 28.5835 185.409 27.8837 186.272 27.8837C187.135 27.8837 187.835 28.5835 187.835 29.4468Z" fill="url(#paint10_linear_159_4465)"/>
<path d="M181.582 45.0774C181.582 45.9406 180.882 46.6404 180.019 46.6404C179.156 46.6404 178.456 45.9406 178.456 45.0774C178.456 44.2141 179.156 43.5143 180.019 43.5143C180.882 43.5143 181.582 44.2141 181.582 45.0774Z" fill="url(#paint11_linear_159_4465)"/>
<path d="M145.632 31.0099C145.632 31.8731 144.933 32.5729 144.069 32.5729C143.206 32.5729 142.506 31.8731 142.506 31.0099C142.506 30.1466 143.206 29.4468 144.069 29.4468C144.933 29.4468 145.632 30.1466 145.632 31.0099Z" fill="url(#paint12_linear_159_4465)"/>
<path d="M223.785 38.8252C223.785 39.6884 223.085 40.3882 222.222 40.3882C221.358 40.3882 220.659 39.6884 220.659 38.8252C220.659 37.9619 221.358 37.2621 222.222 37.2621C223.085 37.2621 223.785 37.9619 223.785 38.8252Z" fill="url(#paint13_linear_159_4465)"/>
<path d="M226.911 70.0863C226.911 70.9496 226.212 71.6494 225.348 71.6494C224.485 71.6494 223.785 70.9496 223.785 70.0863C223.785 69.2231 224.485 68.5233 225.348 68.5233C226.212 68.5233 226.911 69.2231 226.911 70.0863Z" fill="url(#paint14_linear_159_4465)"/>
<path d="M206.591 91.9693C206.591 92.8326 205.891 93.5324 205.028 93.5324C204.165 93.5324 203.465 92.8326 203.465 91.9693C203.465 91.1061 204.165 90.4063 205.028 90.4063C205.891 90.4063 206.591 91.1061 206.591 91.9693Z" fill="url(#paint15_linear_159_4465)"/>
<path d="M226.911 90.4062C226.911 91.2694 226.212 91.9693 225.348 91.9693C224.485 91.9693 223.785 91.2694 223.785 90.4062C223.785 89.5429 224.485 88.8431 225.348 88.8431C226.212 88.8431 226.911 89.5429 226.911 90.4062Z" fill="url(#paint16_linear_159_4465)"/>
<path d="M240.978 54.4557C240.978 55.319 240.279 56.0188 239.415 56.0188C238.552 56.0188 237.852 55.319 237.852 54.4557C237.852 53.5925 238.552 52.8927 239.415 52.8927C240.279 52.8927 240.978 53.5925 240.978 54.4557Z" fill="url(#paint17_linear_159_4465)"/>
<path d="M242.542 112.289C242.542 113.152 241.842 113.852 240.979 113.852C240.116 113.852 239.416 113.152 239.416 112.289C239.416 111.426 240.116 110.726 240.979 110.726C241.842 110.726 242.542 111.426 242.542 112.289Z" fill="url(#paint18_linear_159_4465)"/>
<path d="M233.163 121.667C233.163 122.531 232.463 123.231 231.6 123.231C230.737 123.231 230.037 122.531 230.037 121.667C230.037 120.804 230.737 120.104 231.6 120.104C232.463 120.104 233.163 120.804 233.163 121.667Z" fill="url(#paint19_linear_159_4465)"/>
<path d="M222.222 140.424C222.222 141.287 221.522 141.987 220.659 141.987C219.796 141.987 219.096 141.287 219.096 140.424C219.096 139.561 219.796 138.861 220.659 138.861C221.522 138.861 222.222 139.561 222.222 140.424Z" fill="url(#paint20_linear_159_4465)"/>
<path d="M211.281 127.92C211.281 128.783 210.581 129.483 209.718 129.483C208.854 129.483 208.155 128.783 208.155 127.92C208.155 127.056 208.854 126.357 209.718 126.357C210.581 126.357 211.281 127.056 211.281 127.92Z" fill="url(#paint21_linear_159_4465)"/>
<path d="M244.105 156.055C244.105 156.918 243.405 157.618 242.542 157.618C241.679 157.618 240.979 156.918 240.979 156.055C240.979 155.192 241.679 154.492 242.542 154.492C243.405 154.492 244.105 155.192 244.105 156.055Z" fill="url(#paint22_linear_159_4465)"/>
<path d="M197.213 159.181C197.213 160.044 196.513 160.744 195.65 160.744C194.787 160.744 194.087 160.044 194.087 159.181C194.087 158.318 194.787 157.618 195.65 157.618C196.513 157.618 197.213 158.318 197.213 159.181Z" fill="url(#paint23_linear_159_4465)"/>
<path d="M176.893 131.046C176.893 131.909 176.193 132.609 175.33 132.609C174.466 132.609 173.767 131.909 173.767 131.046C173.767 130.183 174.466 129.483 175.33 129.483C176.193 129.483 176.893 130.183 176.893 131.046Z" fill="url(#paint24_linear_159_4465)"/>
<path d="M162.826 143.55C162.826 144.414 162.126 145.113 161.263 145.113C160.4 145.113 159.7 144.414 159.7 143.55C159.7 142.687 160.4 141.987 161.263 141.987C162.126 141.987 162.826 142.687 162.826 143.55Z" fill="url(#paint25_linear_159_4465)"/>
<path d="M125.312 124.794C125.312 125.657 124.612 126.357 123.749 126.357C122.886 126.357 122.186 125.657 122.186 124.794C122.186 123.93 122.886 123.231 123.749 123.231C124.612 123.231 125.312 123.93 125.312 124.794Z" fill="url(#paint26_linear_159_4465)"/>
<path d="M172.204 95.0954C172.204 95.9587 171.504 96.6585 170.641 96.6585C169.778 96.6585 169.078 95.9587 169.078 95.0954C169.078 94.2322 169.778 93.5323 170.641 93.5323C171.504 93.5323 172.204 94.2322 172.204 95.0954Z" fill="url(#paint27_linear_159_4465)"/>
<path d="M139.38 162.307C139.38 163.17 138.68 163.87 137.817 163.87C136.954 163.87 136.254 163.17 136.254 162.307C136.254 161.444 136.954 160.744 137.817 160.744C138.68 160.744 139.38 161.444 139.38 162.307Z" fill="url(#paint28_linear_159_4465)"/>
<defs>
<radialGradient id="paint0_radial_159_4465" cx="0" cy="0" r="1" gradientUnits="userSpaceOnUse" gradientTransform="translate(185 227.942) rotate(-90) scale(197.907 150.088)">
<stop stop-color="#0FFFD7"/>
<stop offset="1" stop-color="#191B31" stop-opacity="0"/>
</radialGradient>
<linearGradient id="paint1_linear_159_4465" x1="183.146" y1="27.8837" x2="183.146" y2="163.87" gradientUnits="userSpaceOnUse">
<stop stop-color="#0FFFD7" stop-opacity="0"/>
<stop offset="1" stop-color="#0FFFD7"/>
</linearGradient>
<linearGradient id="paint2_linear_159_4465" x1="183.146" y1="27.8837" x2="183.146" y2="163.87" gradientUnits="userSpaceOnUse">
<stop stop-color="#0FFFD7" stop-opacity="0"/>
<stop offset="1" stop-color="#0FFFD7"/>
</linearGradient>
<linearGradient id="paint3_linear_159_4465" x1="183.146" y1="27.8837" x2="183.146" y2="163.87" gradientUnits="userSpaceOnUse">
<stop stop-color="#0FFFD7" stop-opacity="0"/>
<stop offset="1" stop-color="#0FFFD7"/>
</linearGradient>
<linearGradient id="paint4_linear_159_4465" x1="183.146" y1="27.8837" x2="183.146" y2="163.87" gradientUnits="userSpaceOnUse">
<stop stop-color="#0FFFD7" stop-opacity="0"/>
<stop offset="1" stop-color="#0FFFD7"/>
</linearGradient>
<linearGradient id="paint5_linear_159_4465" x1="183.146" y1="27.8837" x2="183.146" y2="163.87" gradientUnits="userSpaceOnUse">
<stop stop-color="#0FFFD7" stop-opacity="0"/>
<stop offset="1" stop-color="#0FFFD7"/>
</linearGradient>
<linearGradient id="paint6_linear_159_4465" x1="183.146" y1="27.8837" x2="183.146" y2="163.87" gradientUnits="userSpaceOnUse">
<stop stop-color="#0FFFD7" stop-opacity="0"/>
<stop offset="1" stop-color="#0FFFD7"/>
</linearGradient>
<linearGradient id="paint7_linear_159_4465" x1="183.146" y1="27.8837" x2="183.146" y2="163.87" gradientUnits="userSpaceOnUse">
<stop stop-color="#0FFFD7" stop-opacity="0"/>
<stop offset="1" stop-color="#0FFFD7"/>
</linearGradient>
<linearGradient id="paint8_linear_159_4465" x1="183.146" y1="27.8837" x2="183.146" y2="163.87" gradientUnits="userSpaceOnUse">
<stop stop-color="#0FFFD7" stop-opacity="0"/>
<stop offset="1" stop-color="#0FFFD7"/>
</linearGradient>
<linearGradient id="paint9_linear_159_4465" x1="183.146" y1="27.8837" x2="183.146" y2="163.87" gradientUnits="userSpaceOnUse">
<stop stop-color="#0FFFD7" stop-opacity="0"/>
<stop offset="1" stop-color="#0FFFD7"/>
</linearGradient>
<linearGradient id="paint10_linear_159_4465" x1="183.146" y1="27.8837" x2="183.146" y2="163.87" gradientUnits="userSpaceOnUse">
<stop stop-color="#0FFFD7" stop-opacity="0"/>
<stop offset="1" stop-color="#0FFFD7"/>
</linearGradient>
<linearGradient id="paint11_linear_159_4465" x1="183.146" y1="27.8837" x2="183.146" y2="163.87" gradientUnits="userSpaceOnUse">
<stop stop-color="#0FFFD7" stop-opacity="0"/>
<stop offset="1" stop-color="#0FFFD7"/>
</linearGradient>
<linearGradient id="paint12_linear_159_4465" x1="183.146" y1="27.8837" x2="183.146" y2="163.87" gradientUnits="userSpaceOnUse">
<stop stop-color="#0FFFD7" stop-opacity="0"/>
<stop offset="1" stop-color="#0FFFD7"/>
</linearGradient>
<linearGradient id="paint13_linear_159_4465" x1="183.146" y1="27.8837" x2="183.146" y2="163.87" gradientUnits="userSpaceOnUse">
<stop stop-color="#0FFFD7" stop-opacity="0"/>
<stop offset="1" stop-color="#0FFFD7"/>
</linearGradient>
<linearGradient id="paint14_linear_159_4465" x1="183.146" y1="27.8837" x2="183.146" y2="163.87" gradientUnits="userSpaceOnUse">
<stop stop-color="#0FFFD7" stop-opacity="0"/>
<stop offset="1" stop-color="#0FFFD7"/>
</linearGradient>
<linearGradient id="paint15_linear_159_4465" x1="183.146" y1="27.8837" x2="183.146" y2="163.87" gradientUnits="userSpaceOnUse">
<stop stop-color="#0FFFD7" stop-opacity="0"/>
<stop offset="1" stop-color="#0FFFD7"/>
</linearGradient>
<linearGradient id="paint16_linear_159_4465" x1="183.146" y1="27.8837" x2="183.146" y2="163.87" gradientUnits="userSpaceOnUse">
<stop stop-color="#0FFFD7" stop-opacity="0"/>
<stop offset="1" stop-color="#0FFFD7"/>
</linearGradient>
<linearGradient id="paint17_linear_159_4465" x1="183.146" y1="27.8837" x2="183.146" y2="163.87" gradientUnits="userSpaceOnUse">
<stop stop-color="#0FFFD7" stop-opacity="0"/>
<stop offset="1" stop-color="#0FFFD7"/>
</linearGradient>
<linearGradient id="paint18_linear_159_4465" x1="183.146" y1="27.8837" x2="183.146" y2="163.87" gradientUnits="userSpaceOnUse">
<stop stop-color="#0FFFD7" stop-opacity="0"/>
<stop offset="1" stop-color="#0FFFD7"/>
</linearGradient>
<linearGradient id="paint19_linear_159_4465" x1="183.146" y1="27.8837" x2="183.146" y2="163.87" gradientUnits="userSpaceOnUse">
<stop stop-color="#0FFFD7" stop-opacity="0"/>
<stop offset="1" stop-color="#0FFFD7"/>
</linearGradient>
<linearGradient id="paint20_linear_159_4465" x1="183.146" y1="27.8837" x2="183.146" y2="163.87" gradientUnits="userSpaceOnUse">
<stop stop-color="#0FFFD7" stop-opacity="0"/>
<stop offset="1" stop-color="#0FFFD7"/>
</linearGradient>
<linearGradient id="paint21_linear_159_4465" x1="183.146" y1="27.8837" x2="183.146" y2="163.87" gradientUnits="userSpaceOnUse">
<stop stop-color="#0FFFD7" stop-opacity="0"/>
<stop offset="1" stop-color="#0FFFD7"/>
</linearGradient>
<linearGradient id="paint22_linear_159_4465" x1="183.146" y1="27.8837" x2="183.146" y2="163.87" gradientUnits="userSpaceOnUse">
<stop stop-color="#0FFFD7" stop-opacity="0"/>
<stop offset="1" stop-color="#0FFFD7"/>
</linearGradient>
<linearGradient id="paint23_linear_159_4465" x1="183.146" y1="27.8837" x2="183.146" y2="163.87" gradientUnits="userSpaceOnUse">
<stop stop-color="#0FFFD7" stop-opacity="0"/>
<stop offset="1" stop-color="#0FFFD7"/>
</linearGradient>
<linearGradient id="paint24_linear_159_4465" x1="183.146" y1="27.8837" x2="183.146" y2="163.87" gradientUnits="userSpaceOnUse">
<stop stop-color="#0FFFD7" stop-opacity="0"/>
<stop offset="1" stop-color="#0FFFD7"/>
</linearGradient>
<linearGradient id="paint25_linear_159_4465" x1="183.146" y1="27.8837" x2="183.146" y2="163.87" gradientUnits="userSpaceOnUse">
<stop stop-color="#0FFFD7" stop-opacity="0"/>
<stop offset="1" stop-color="#0FFFD7"/>
</linearGradient>
<linearGradient id="paint26_linear_159_4465" x1="183.146" y1="27.8837" x2="183.146" y2="163.87" gradientUnits="userSpaceOnUse">
<stop stop-color="#0FFFD7" stop-opacity="0"/>
<stop offset="1" stop-color="#0FFFD7"/>
</linearGradient>
<linearGradient id="paint27_linear_159_4465" x1="183.146" y1="27.8837" x2="183.146" y2="163.87" gradientUnits="userSpaceOnUse">
<stop stop-color="#0FFFD7" stop-opacity="0"/>
<stop offset="1" stop-color="#0FFFD7"/>
</linearGradient>
<linearGradient id="paint28_linear_159_4465" x1="183.146" y1="27.8837" x2="183.146" y2="163.87" gradientUnits="userSpaceOnUse">
<stop stop-color="#0FFFD7" stop-opacity="0"/>
<stop offset="1" stop-color="#0FFFD7"/>
</linearGradient>
</defs>
</svg>
